<svg xmlns="http://www.w3.org/2000/svg" fill="none" viewBox="0 0 348 348"><defs><path id="d" d="M139 20h52v23h-52z"/><path id="c" d="M145 22h52v21h-52z"/><path id="b" d="M146 20h60v21h-60z"/><path id="a" d="M172 51h34v56h-34z"/><path id="e" d="M139 20h52v23h-52z"/><path id="f" d="M139 20h52v23h-52z"/><path id="g" d="M139 20h52v23h-52z"/></defs><path stroke="#000" stroke-width="2" d="M5 6h337v338H5z"/><ellipse cx="298.3" cy="40.5" stroke="#000" stroke-width="2" rx="15.9" ry="15.5"/><ellipse cx="71.2" cy="114.3" rx="44.1" ry="42.9" style="fill:none;fill-rule:evenodd;stroke:#000;stroke-width:.92626"/><ellipse cx="175.7" cy="193.2" rx="44.1" ry="42.9" style="fill:none;fill-rule:evenodd;stroke:#000;stroke-width:.92626"/><ellipse cx="272.9" cy="277.1" rx="44.1" ry="42.9" style="fill:none;fill-rule:evenodd;stroke:#000;stroke-width:.92626"/><ellipse cx="81.4" cy="271.5" rx="54.8" ry="53.4" style="fill:none;fill-rule:evenodd;stroke:#000;stroke-width:1.15269"/><ellipse cx="80.7" cy="272.2" rx="35.5" ry="35.7" style="fill:none;fill-rule:evenodd;stroke:#000;stroke-width:1.04328"/><circle cx="81.1" cy="272" r="23.2" style="fill:none;fill-rule:evenodd;stroke:#000;stroke-width:.68036"/><ellipse cx="278" cy="120.3" rx="54.8" ry="53.4" style="fill:none;fill-rule:evenodd;stroke:#000;stroke-width:1.15269"/><ellipse cx="277.3" cy="121" rx="35.5" ry="35.7" style="fill:none;fill-rule:evenodd;stroke:#000;stroke-width:1.04328"/><circle cx="277.7" cy="120.8" r="23.2" style="fill:none;fill-rule:evenodd;stroke:#000;stroke-width:.68036"/><path d="M77 18v28l184-2V18z" style="fill:none;stroke:#000;stroke-width:1px;stroke-linecap:butt;stroke-linejoin:miter;stroke-opacity:1"/><text xml:space="preserve" x="212" y="80.8" style="font-style:normal;font-weight:400;font-size:40px;line-height:1.25;font-family:sans-serif;fill:#000;fill-opacity:1;stroke:none"/><text xml:space="preserve" x="142.3" y="30.5" style="font-style:normal;font-weight:400;font-size:40px;line-height:1.25;font-family:sans-serif;fill:#000;fill-opacity:1;stroke:none"/><text xml:space="preserve" style="font-size:13.3333px;line-height:1.25;font-family:sans-serif;white-space:pre;shape-inside:url(#d);fill:#000" transform="matrix(2.51777 0 0 2.37716 -208 -35)"><tspan x="139" y="32.5"><tspan style="font-size:13.3333px;fill:#000">17</tspan></tspan></text><text xml:space="preserve" style="font-size:13.3333px;line-height:1.25;font-family:sans-serif;white-space:pre;shape-inside:url(#e);fill:#000" transform="matrix(2.51777 0 0 2.37716 -313 48)"><tspan x="139" y="32.5"><tspan>CO1</tspan></tspan></text><text xml:space="preserve" style="font-size:13.3333px;line-height:1.25;font-family:sans-serif;white-space:pre;shape-inside:url(#f);fill:#000" transform="matrix(2.51777 0 0 2.37716 -112 212)"><tspan x="139" y="32.5"><tspan>CO2</tspan></tspan></text><text xml:space="preserve" style="font-size:13.3333px;line-height:1.25;font-family:sans-serif;white-space:pre;shape-inside:url(#g);fill:#000" transform="matrix(2.51777 0 0 2.37716 -219 126)"><tspan x="139" y="32.5"><tspan>QUIT</tspan></tspan></text></svg>